<svg width="1440" height="768" viewBox="0 0 1440 768" fill="none" xmlns="http://www.w3.org/2000/svg">
<rect width="1440" height="768" fill="#FDF2FF"/>
<mask id="mask0" mask-type="alpha" maskUnits="userSpaceOnUse" x="0" y="0" width="1440" height="768">
<rect width="1440" height="768" fill="white"/>
</mask>
<g mask="url(#mask0)">
<path opacity="0.0952846" d="M1339.5 860C1428.69 860 1501 787.694 1501 698.5C1501 609.306 1428.69 537 1339.5 537C1250.31 537 1178 609.306 1178 698.5C1178 787.694 1250.31 860 1339.5 860Z" fill="url(#paint0_linear)"/>
<path opacity="0.0952846" d="M720 838C758.66 838 790 806.66 790 768C790 729.34 758.66 698 720 698C681.34 698 650 729.34 650 768C650 806.66 681.34 838 720 838Z" fill="url(#paint1_linear)"/>
<path opacity="0.0952846" d="M1071 50C1098.61 50 1121 27.6142 1121 0C1121 -27.6142 1098.61 -50 1071 -50C1043.39 -50 1021 -27.6142 1021 0C1021 27.6142 1043.39 50 1071 50Z" fill="url(#paint2_linear)"/>
<path opacity="0.0952846" d="M173.5 293C227.348 293 271 249.348 271 195.5C271 141.652 227.348 98 173.5 98C119.652 98 76 141.652 76 195.5C76 249.348 119.652 293 173.5 293Z" fill="url(#paint3_linear)"/>
</g>
<defs>
<linearGradient id="paint0_linear" x1="1341.11" y1="372.27" x2="1014.89" y2="701.73" gradientUnits="userSpaceOnUse">
<stop stop-color="#3023AE"/>
<stop offset="1" stop-color="#C86DD7" stop-opacity="0.01"/>
</linearGradient>
<linearGradient id="paint1_linear" x1="720.7" y1="626.6" x2="579.3" y2="769.4" gradientUnits="userSpaceOnUse">
<stop stop-color="#3023AE"/>
<stop offset="1" stop-color="#C86DD7" stop-opacity="0.01"/>
</linearGradient>
<linearGradient id="paint2_linear" x1="1071.5" y1="-101" x2="970.5" y2="0.999999" gradientUnits="userSpaceOnUse">
<stop stop-color="#3023AE"/>
<stop offset="1" stop-color="#C86DD7" stop-opacity="0.01"/>
</linearGradient>
<linearGradient id="paint3_linear" x1="174.475" y1="-1.45" x2="-22.475" y2="197.45" gradientUnits="userSpaceOnUse">
<stop stop-color="#3023AE"/>
<stop offset="1" stop-color="#C86DD7" stop-opacity="0.01"/>
</linearGradient>
</defs>
</svg>
